<svg width="35" height="65" viewBox="0 0 35 65" fill="none" xmlns="http://www.w3.org/2000/svg">
<path d="M13.4229 64.867C11.4009 64.867 9.77678 63.1745 9.80408 61.0924L10.1505 34.6696L3.6208 34.6742C1.61494 34.6742 -0.00944581 32.9982 -1.06499e-05 30.9357L0.016889 26.4016C0.0214086 25.3855 0.40958 24.4297 1.11454 23.7095C1.81659 22.9878 2.74769 22.5907 3.73522 22.5907H10.3089L10.398 15.7963C10.5316 5.61068 15.6557 0 24.8251 0C28.4524 0 31.6155 0.264227 31.6448 0.267247C33.0591 0.397096 34.1086 1.59593 34.0895 3.05598L33.999 9.95609C33.9788 11.4992 32.7415 12.7554 31.2419 12.7554H26.9748C25.1891 12.7554 23.7153 14.2502 23.6912 16.0892L23.5238 22.5907H30.0359C31.0821 22.5907 32.0738 23.0527 32.7588 23.8559C33.4438 24.6592 33.7599 25.7327 33.6241 26.8017L33.0526 31.3313C32.8134 33.2353 31.2274 34.6696 29.3669 34.6696H23.3566L23.0102 61.0924C22.9829 63.1745 21.3143 64.867 19.2923 64.867H13.4229Z" fill="white"/>
</svg>
