<svg width="57" height="55" viewBox="0 0 57 55" fill="none" xmlns="http://www.w3.org/2000/svg">
<path d="M17.4401 0C7.96553 0 0.207115 7.39927 0.145702 16.4938L0.000427271 38.0075C-0.0609854 47.1021 7.5975 54.5013 17.0721 54.5013H39.4847C48.9592 54.5013 56.7177 47.1021 56.7791 38.0075L56.9243 16.4938C56.9858 7.39927 49.3273 0 39.8527 0H17.4401ZM43.5203 10.0397C45.1714 10.0397 46.5 11.3234 46.4893 12.9082C46.4786 14.4916 45.1327 15.7767 43.4816 15.7767C41.8305 15.7767 40.5019 14.4916 40.5126 12.9082C40.5233 11.3234 41.8693 10.0397 43.5203 10.0397ZM28.5592 12.9082C36.7981 12.9082 43.4575 19.3422 43.4041 27.2507C43.3507 35.1591 36.6044 41.5931 28.3655 41.5931C20.1267 41.5931 13.4672 35.1591 13.5206 27.2507C13.574 19.3422 20.3204 12.9082 28.5592 12.9082ZM28.5302 17.2109C27.1567 17.2109 25.7948 17.4706 24.5224 17.9752C23.2501 18.4797 22.0921 19.2192 21.1145 20.1515C20.137 21.0838 19.3591 22.1906 18.8253 23.4086C18.2914 24.6267 18.0121 25.9322 18.0032 27.2507C17.9943 28.5691 18.256 29.8746 18.7734 31.0927C19.2908 32.3108 20.0537 33.4176 21.0187 34.3498C21.9836 35.2821 23.1316 36.0216 24.3972 36.5262C25.6627 37.0307 27.0211 37.2904 28.3946 37.2904C29.7681 37.2904 31.1299 37.0307 32.4023 36.5262C33.6747 36.0216 34.8327 35.2821 35.8102 34.3498C36.7878 33.4176 37.5656 32.3108 38.0995 31.0927C38.6333 29.8746 38.9127 28.5691 38.9216 27.2507C38.9305 25.9322 38.6688 24.6267 38.1514 23.4086C37.634 22.1906 36.871 21.0838 35.9061 20.1515C34.9412 19.2192 33.7932 18.4797 32.5276 17.9752C31.262 17.4706 29.9037 17.2109 28.5302 17.2109Z" fill="white"/>
</svg>
