<svg width="60" height="55" viewBox="0 0 60 55" fill="none" xmlns="http://www.w3.org/2000/svg">
<path d="M59.1191 6.47639C58.6822 6.01755 58.0245 5.88667 57.4736 6.15445L57.2401 6.26728C57.0423 6.36356 56.8444 6.45984 56.6451 6.55462C57.2066 5.57827 57.6454 4.53423 57.9391 3.45407C58.1026 2.85834 57.8913 2.20694 57.4088 1.82181C56.9262 1.43669 56.2737 1.39607 55.7704 1.72252C54.1527 2.76507 52.5923 3.51576 50.9728 4.03928C48.4443 1.5435 45.0482 0 41.3427 0C33.7806 0 27.8149 6.39816 28.0171 14.2917C28.0173 14.2992 28.0249 14.5971 28.0363 15.0439L26.5935 14.9235C12.536 13.1935 8.29464 3.35479 8.11803 2.93055C7.83185 2.22349 7.22772 1.70748 6.51034 1.55253C5.79432 1.39457 5.06094 1.62775 4.55874 2.16481C4.28104 2.46419 1.84283 5.23527 1.97848 10.5307C2.07513 14.3037 3.76481 17.3636 5.91124 19.7436C4.92401 19.1253 4.34477 18.6243 4.33001 18.6108C3.65011 18.006 2.69566 17.8797 1.91657 18.2979C1.14041 18.7176 0.6988 19.5947 0.801613 20.5138C0.837128 20.8313 1.60532 26.8518 8.38461 31.3981L7.17555 31.6283C6.44266 31.7682 5.84078 32.2962 5.58559 33.0243C5.33189 33.754 5.45962 34.5769 5.92532 35.2027C6.08208 35.4148 8.99466 39.2344 15.1632 41.4308C11.9279 42.5667 7.46994 43.6273 2.10565 43.6273C1.25821 43.6273 0.500402 44.1448 0.170837 44.9511C-0.160169 45.7575 -0.00189512 46.7037 0.574338 47.3687C0.813506 47.647 6.60544 54.158 21.1115 54.158C45.1989 54.158 55.8239 30.8174 55.4199 15.0439L55.4006 14.2917C55.3949 14.069 55.3662 13.8509 55.352 13.6313C58.2891 10.5894 59.3649 8.30723 59.4168 8.1944C59.6745 7.62273 59.556 6.93373 59.1191 6.47639Z" fill="white"/>
</svg>
