<svg width="58" height="43" viewBox="0 0 58 43" fill="none" xmlns="http://www.w3.org/2000/svg">
<path d="M28.2633 0C19.9781 0 12.2873 0.606407 7.90575 1.5491C7.89642 1.55164 7.88711 1.55426 7.87782 1.55695C4.5774 2.31871 1.48965 4.75378 0.878066 8.56714C0.877258 8.57237 0.87647 8.5776 0.875702 8.58284C0.407536 11.6563 -0.0607474 15.6627 0.00649319 21.4362C0.0736065 27.1987 0.635742 31.099 1.31062 34.334C2.02579 38.0349 5.09919 40.5436 8.46823 41.3154C8.48436 41.32 8.50054 41.3243 8.51678 41.3285C13.1119 42.2564 20.5997 42.8723 28.8849 42.8723C37.17 42.8723 44.6474 42.2564 49.2221 41.3285C49.2382 41.3243 49.2543 41.32 49.2703 41.3154C52.5707 40.5536 55.6585 38.1186 56.2701 34.3052C56.2717 34.2956 56.2733 34.286 56.2748 34.2764C56.7345 31.1403 57.3309 27.1377 57.3903 21.3551C57.3903 21.3402 57.3901 21.3254 57.3898 21.3106C57.3224 15.5247 56.6308 11.4934 55.9646 8.30023C55.2547 4.59146 52.1777 2.07593 48.8043 1.30313C48.7528 1.29139 48.7008 1.28179 48.6486 1.27434C44.1674 0.628281 36.5498 0 28.2633 0ZM23.5689 11.3906C24.0518 11.3803 24.5525 11.4977 25.0252 11.77L36.3218 18.283C38.227 19.3816 38.2592 22.1536 36.3796 23.2522L25.2348 29.7652C23.3707 30.8531 21.0157 29.4752 20.9901 27.2793L20.8384 14.2533C20.8192 12.6064 22.12 11.4214 23.5689 11.3906Z" fill="white"/>
</svg>
